<svg width="28" height="28" viewBox="0 0 28 28" fill="none" xmlns="http://www.w3.org/2000/svg">
<path d="M14.0001 5.25C8.16675 5.25 3.18508 8.87833 1.16675 14C3.18508 19.1217 8.16675 22.75 14.0001 22.75C19.8334 22.75 24.8151 19.1217 26.8334 14C24.8151 8.87833 19.8334 5.25 14.0001 5.25ZM14.0001 19.8333C10.7801 19.8333 8.16675 17.22 8.16675 14C8.16675 10.78 10.7801 8.16667 14.0001 8.16667C17.2201 8.16667 19.8334 10.78 19.8334 14C19.8334 17.22 17.2201 19.8333 14.0001 19.8333ZM14.0001 10.5C12.0634 10.5 10.5001 12.0633 10.5001 14C10.5001 15.9367 12.0634 17.5 14.0001 17.5C15.9367 17.5 17.5001 15.9367 17.5001 14C17.5001 12.0633 15.9367 10.5 14.0001 10.5Z" fill="#DCDCDC"/>
</svg>
