<svg width="30" height="16" viewBox="0 0 30 16" fill="none" xmlns="http://www.w3.org/2000/svg">
<path d="M15.8864 5.33333C14.7682 2.22667 11.7409 0 8.18182 0C3.66818 0 0 3.58667 0 8C0 12.4133 3.66818 16 8.18182 16C11.7409 16 14.7682 13.7733 15.8864 10.6667H21.8182V16H27.2727V10.6667H30V5.33333H15.8864ZM8.18182 10.6667C6.68182 10.6667 5.45455 9.46667 5.45455 8C5.45455 6.53333 6.68182 5.33333 8.18182 5.33333C9.68182 5.33333 10.9091 6.53333 10.9091 8C10.9091 9.46667 9.68182 10.6667 8.18182 10.6667Z" fill="#B5B5B5"/>
</svg>
