<svg width="640" height="639" viewBox="0 0 640 639" fill="none" xmlns="http://www.w3.org/2000/svg">
<path d="M625 375.387C625 513.677 520.557 624 393.846 624C267.135 624 162.692 513.677 162.692 375.387C162.692 237.096 267.135 126.773 393.846 126.773C520.557 126.773 625 237.096 625 375.387Z" stroke="black" stroke-width="30"/>
<line x1="393.346" y1="628.394" x2="393.346" y2="375.386" stroke="black"/>
<line x1="393.346" y1="375.325" x2="393.346" y2="122.317" stroke="black"/>
<line x1="393.789" y1="375.887" x2="157.538" y2="375.887" stroke="black"/>
<line y1="-0.5" x2="238.778" y2="-0.5" transform="matrix(-0.9141 -0.405489 0.360737 -0.932668 393.528 375.199)" stroke="black"/>
<line y1="-0.5" x2="238.778" y2="-0.5" transform="matrix(-0.9141 -0.405489 0.360737 -0.932668 612.113 472.208)" stroke="black"/>
<line y1="-0.5" x2="244.772" y2="-0.5" transform="matrix(0.682488 -0.730897 0.682488 0.730897 393.846 376.087)" stroke="black"/>
<line y1="-0.5" x2="244.772" y2="-0.5" transform="matrix(0.682488 -0.730897 0.682488 0.730897 226.462 555.344)" stroke="black"/>
<line y1="-0.5" x2="238.778" y2="-0.5" transform="matrix(0.9141 -0.405489 0.360737 0.932668 175.261 473.263)" stroke="black"/>
<line y1="-0.5" x2="238.778" y2="-0.5" transform="matrix(0.9141 -0.405489 0.360737 0.932668 393.846 376.253)" stroke="black"/>
<line y1="-0.5" x2="244.772" y2="-0.5" transform="matrix(-0.682488 -0.730897 0.682488 -0.730897 393.516 375.033)" stroke="black"/>
<line y1="-0.5" x2="255.169" y2="-0.5" transform="matrix(-0.360737 -0.932668 0.9141 -0.405489 394.161 376.195)" stroke="black"/>
<line y1="-0.5" x2="255.169" y2="-0.5" transform="matrix(-0.360737 -0.932668 0.9141 -0.405489 485.895 613.375)" stroke="black"/>
<line y1="-0.5" x2="255.169" y2="-0.5" transform="matrix(0.360737 -0.932668 0.9141 0.405489 393.846 376.122)" stroke="black"/>
<line y1="-0.5" x2="255.169" y2="-0.5" transform="matrix(0.360737 -0.932668 0.9141 0.405489 302.277 612.32)" stroke="black"/>
<path d="M560.9 554.29L393.846 375.387" stroke="black"/>
<line x1="393.846" y1="375.941" x2="630.096" y2="375.941" stroke="black"/>
<path d="M396.714 93.9263C109.691 86.875 60.0374 555.951 76.7139 562.104" stroke="black" stroke-width="10"/>
<line x1="393.346" y1="628.394" x2="393.346" y2="375.386" stroke="black"/>
<line x1="393.346" y1="375.325" x2="393.346" y2="122.317" stroke="black"/>
<line x1="393.789" y1="375.887" x2="157.538" y2="375.887" stroke="black"/>
<line y1="-0.5" x2="238.778" y2="-0.5" transform="matrix(-0.9141 -0.405489 0.360737 -0.932668 393.528 375.199)" stroke="black"/>
<line y1="-0.5" x2="238.778" y2="-0.5" transform="matrix(-0.9141 -0.405489 0.360737 -0.932668 612.113 472.208)" stroke="black"/>
<line y1="-0.5" x2="244.772" y2="-0.5" transform="matrix(0.682488 -0.730897 0.682488 0.730897 393.846 376.087)" stroke="black"/>
<line y1="-0.5" x2="244.772" y2="-0.5" transform="matrix(0.682488 -0.730897 0.682488 0.730897 226.462 555.344)" stroke="black"/>
<line y1="-0.5" x2="238.778" y2="-0.5" transform="matrix(0.9141 -0.405489 0.360737 0.932668 175.261 473.263)" stroke="black"/>
<line y1="-0.5" x2="238.778" y2="-0.5" transform="matrix(0.9141 -0.405489 0.360737 0.932668 393.846 376.253)" stroke="black"/>
<line y1="-0.5" x2="244.772" y2="-0.5" transform="matrix(-0.682488 -0.730897 0.682488 -0.730897 393.516 375.033)" stroke="black"/>
<line y1="-0.5" x2="255.169" y2="-0.5" transform="matrix(-0.360737 -0.932668 0.9141 -0.405489 394.161 376.195)" stroke="black"/>
<line y1="-0.5" x2="255.169" y2="-0.5" transform="matrix(-0.360737 -0.932668 0.9141 -0.405489 485.895 613.375)" stroke="black"/>
<line y1="-0.5" x2="255.169" y2="-0.5" transform="matrix(0.360737 -0.932668 0.9141 0.405489 393.846 376.122)" stroke="black"/>
<line y1="-0.5" x2="255.169" y2="-0.5" transform="matrix(0.360737 -0.932668 0.9141 0.405489 302.277 612.32)" stroke="black"/>
<path d="M560.9 554.29L393.846 375.387" stroke="black"/>
<line x1="393.846" y1="375.941" x2="630.096" y2="375.941" stroke="black"/>
<line x1="73.3462" y1="637.946" x2="73.3462" y2="558.861" stroke="black"/>
<line x1="73.3462" y1="558.862" x2="73.3462" y2="480.832" stroke="black"/>
<line x1="73.8462" y1="559.362" x2="0.984657" y2="559.362" stroke="black"/>
<line y1="-0.5" x2="74.1007" y2="-0.5" transform="matrix(-0.914101 -0.405487 0.360738 -0.932667 74.2202 559.309)" stroke="black"/>
<line y1="-0.5" x2="74.1007" y2="-0.5" transform="matrix(-0.914101 -0.405487 0.360738 -0.932667 142.054 589.414)" stroke="black"/>
<line y1="-0.5" x2="75.9608" y2="-0.5" transform="matrix(0.68249 -0.730895 0.68249 0.730895 74.3187 559.585)" stroke="black"/>
<line y1="-0.5" x2="75.9609" y2="-0.5" transform="matrix(0.68249 -0.730895 0.68249 0.730895 22.3738 615.214)" stroke="black"/>
<line y1="-0.5" x2="74.1007" y2="-0.5" transform="matrix(0.914101 -0.405487 0.360738 0.932667 6.48462 589.741)" stroke="black"/>
<line y1="-0.5" x2="74.1007" y2="-0.5" transform="matrix(0.914101 -0.405487 0.360738 0.932667 74.3187 559.636)" stroke="black"/>
<line y1="-0.5" x2="75.9609" y2="-0.5" transform="matrix(-0.68249 -0.730895 0.68249 -0.730895 74.2163 559.258)" stroke="black"/>
<line y1="-0.5" x2="73.0888" y2="-0.5" transform="matrix(-0.35806 -0.933698 0.915377 -0.402597 74.4164 559.618)" stroke="black"/>
<line y1="-0.5" x2="74.8442" y2="-0.5" transform="matrix(-0.348883 -0.937166 0.919682 -0.392665 100.431 629.509)" stroke="black"/>
<line y1="-0.5" x2="79.1871" y2="-0.5" transform="matrix(0.360739 -0.932667 0.914101 0.405487 45.902 632.895)" stroke="black"/>
<path d="M126.161 614.887L74.3188 559.367" stroke="black"/>
<line x1="73.3462" y1="558.862" x2="73.3462" y2="480.832" stroke="black"/>
<line y1="-0.5" x2="73.0466" y2="-0.5" transform="matrix(0.357471 -0.933924 0.915657 0.40196 74.3187 559.595)" stroke="black"/>
<line x1="73.8462" y1="559.416" x2="147.692" y2="559.416" stroke="black"/>
<path d="M142.692 559.917C142.692 601.16 111.552 634.001 73.8462 634.001C36.1407 634.001 5 601.16 5 559.917C5 518.673 36.1407 485.833 73.8462 485.833C111.552 485.833 142.692 518.673 142.692 559.917Z" stroke="black" stroke-width="10"/>
<line y1="-5" x2="354.299" y2="-5" transform="matrix(-0.00138944 0.999999 -0.999999 -0.00159373 389.908 22.1436)" stroke="black" stroke-width="10"/>
<path d="M514.134 153.206C513.688 153.952 513.126 154.56 512.449 155.029C511.776 155.49 511.057 155.848 510.292 156.103C509.534 156.364 508.762 156.544 507.976 156.644C507.203 156.74 506.49 156.795 505.835 156.807C506.445 157.307 506.987 157.91 507.464 158.614C507.953 159.315 508.311 160.075 508.538 160.892C508.778 161.706 508.858 162.552 508.776 163.43C508.708 164.305 508.423 165.161 507.923 165.999C507.512 166.687 507.045 167.241 506.521 167.662C506.01 168.08 505.467 168.399 504.893 168.62C504.323 168.832 503.744 168.956 503.156 168.99C502.576 169.03 502.021 169.009 501.489 168.929C500.958 168.849 500.464 168.717 500.006 168.533C499.551 168.363 499.171 168.174 498.865 167.964C498.091 167.434 497.504 166.896 497.104 166.35C496.711 165.81 496.445 165.296 496.304 164.81C496.176 164.32 496.144 163.879 496.209 163.486C496.273 163.093 496.376 162.779 496.516 162.545C496.731 162.184 497.009 161.89 497.349 161.663C497.703 161.432 498.084 161.268 498.494 161.171C498.904 161.074 499.335 161.038 499.785 161.063C500.241 161.079 500.678 161.155 501.098 161.289L501.104 161.877C500.426 161.815 499.831 161.927 499.319 162.214C498.812 162.493 498.423 162.859 498.152 163.311C498.002 163.563 497.893 163.86 497.824 164.203C497.769 164.543 497.774 164.895 497.84 165.26C497.914 165.63 498.06 165.995 498.276 166.355C498.505 166.713 498.829 167.036 499.248 167.323C499.86 167.742 500.502 168.016 501.174 168.146C501.851 168.267 502.508 168.251 503.145 168.096C503.795 167.939 504.399 167.65 504.957 167.229C505.523 166.813 506.004 166.274 506.4 165.612C506.806 164.933 507.027 164.24 507.063 163.532C507.108 162.83 507.01 162.149 506.769 161.488C506.541 160.824 506.188 160.198 505.71 159.61C505.24 159.029 504.691 158.523 504.063 158.092C503.805 157.915 503.541 157.758 503.272 157.621C503.007 157.475 502.747 157.35 502.491 157.246C502.248 157.138 502.026 157.045 501.824 156.966C501.621 156.886 501.464 156.826 501.353 156.785L501.307 156.576L503.493 155.539C503.597 155.575 503.715 155.615 503.848 155.658C503.959 155.7 504.091 155.754 504.243 155.823C504.4 155.883 504.568 155.963 504.747 156.062C505.279 156.084 505.865 156.054 506.504 155.972C507.157 155.887 507.801 155.72 508.438 155.471C509.088 155.22 509.709 154.865 510.3 154.408C510.899 153.956 511.414 153.369 511.845 152.648C512.571 151.432 512.841 150.324 512.656 149.323C512.47 148.321 511.862 147.468 510.831 146.761C510.235 146.353 509.554 146.076 508.79 145.93C508.03 145.776 507.206 145.778 506.317 145.937C505.435 146.101 504.501 146.43 503.514 146.923C502.534 147.422 501.528 148.109 500.494 148.984C499.469 149.865 498.423 150.95 497.357 152.24C496.292 153.53 495.238 155.047 494.196 156.791C493.766 157.512 493.396 158.198 493.087 158.849C492.785 159.505 492.56 160.101 492.411 160.636C492.274 161.169 492.223 161.624 492.258 162.003C492.293 162.381 492.436 162.656 492.686 162.827C492.935 162.998 493.245 162.945 493.616 162.667C493.999 162.386 494.41 161.965 494.848 161.402C495.299 160.837 495.761 160.178 496.232 159.427C496.712 158.68 497.183 157.921 497.643 157.15C498.344 155.976 498.987 154.863 499.571 153.809C500.159 152.748 500.676 151.797 501.122 150.956C501.575 150.12 501.949 149.419 502.242 148.852C502.535 148.285 502.733 147.907 502.835 147.717L504.5 148.237C504.5 148.332 504.436 148.571 504.309 148.956C504.181 149.341 503.988 149.835 503.73 150.438C503.477 151.033 503.157 151.712 502.769 152.474C502.395 153.234 501.958 154.033 501.457 154.871C500.61 156.288 499.827 157.506 499.105 158.523C498.396 159.539 497.738 160.393 497.131 161.087C496.528 161.773 495.979 162.313 495.483 162.706C494.995 163.104 494.55 163.384 494.147 163.545C493.757 163.703 493.408 163.765 493.099 163.731C492.794 163.711 492.528 163.623 492.303 163.469C491.811 163.132 491.473 162.652 491.289 162.03C491.107 161.421 491.05 160.738 491.117 159.98C491.188 159.214 491.372 158.412 491.667 157.575C491.968 156.73 492.354 155.913 492.825 155.125C493.501 153.993 494.3 152.892 495.222 151.823C496.145 150.754 497.147 149.78 498.227 148.902C499.313 148.015 500.454 147.255 501.65 146.621C502.851 145.979 504.061 145.532 505.279 145.279C506.502 145.018 507.712 144.979 508.909 145.161C510.119 145.34 511.268 145.802 512.355 146.547C512.976 146.972 513.483 147.444 513.877 147.962C514.285 148.477 514.565 149.024 514.72 149.602C514.879 150.172 514.912 150.762 514.82 151.373C514.728 151.983 514.499 152.594 514.134 153.206ZM510.517 167.245L510.246 167.414L509.967 167.595L509.704 166.866L509.983 166.684C510.44 166.395 510.86 166.08 511.245 165.741C511.642 165.399 511.994 165.067 512.299 164.745C512.613 164.428 512.884 164.147 513.11 163.9C513.337 163.654 513.516 163.487 513.648 163.4C513.756 163.332 513.872 163.3 513.996 163.302C514.133 163.301 514.262 163.313 514.384 163.337C514.513 163.367 514.628 163.404 514.726 163.447C514.833 163.497 514.906 163.535 514.947 163.563C515.124 163.685 515.218 163.802 515.229 163.916C515.249 164.036 515.201 164.192 515.086 164.385C515.031 164.477 514.873 164.694 514.612 165.035C514.365 165.374 514.051 165.803 513.673 166.323C513.307 166.841 512.898 167.429 512.448 168.089C512.01 168.746 511.573 169.439 511.137 170.169C510.822 170.697 510.596 171.133 510.459 171.476C510.327 171.811 510.252 172.079 510.234 172.279C510.225 172.485 510.252 172.64 510.315 172.742C510.387 172.851 510.471 172.938 510.568 173.004C510.697 173.092 510.877 173.133 511.108 173.126C511.339 173.119 511.651 173.043 512.044 172.899C512.442 172.746 512.932 172.515 513.514 172.205C514.102 171.887 514.818 171.467 515.662 170.947L515.953 170.774L516.215 171.503L515.925 171.676C515.248 172.087 514.576 172.489 513.91 172.883C513.251 173.283 512.624 173.609 512.03 173.864C511.443 174.123 510.905 174.292 510.416 174.371C509.931 174.44 509.532 174.368 509.218 174.152C508.887 173.926 508.641 173.663 508.48 173.363C508.331 173.061 508.272 172.695 508.301 172.266C508.338 171.843 508.471 171.343 508.701 170.768C508.944 170.191 509.296 169.516 509.757 168.745C509.887 168.527 510.022 168.3 510.163 168.066C510.308 167.822 510.466 167.576 510.637 167.328L510.517 167.245ZM517.381 161.598C517.206 161.891 516.961 162.072 516.648 162.141C516.347 162.207 516.056 162.143 515.774 161.95C515.5 161.762 515.324 161.506 515.246 161.181C515.173 160.847 515.224 160.533 515.399 160.24C515.569 159.955 515.811 159.778 516.125 159.709C516.438 159.64 516.732 159.7 517.006 159.888C517.288 160.081 517.461 160.341 517.526 160.67C517.6 161.003 517.551 161.313 517.381 161.598ZM520.939 172.063C521.131 171.97 521.329 171.828 521.534 171.638C521.746 171.452 521.923 171.243 522.063 171.008C522.233 170.723 522.312 170.428 522.301 170.125C522.289 169.822 522.106 169.549 521.751 169.306C521.518 169.146 521.227 169.071 520.881 169.081C520.534 169.092 520.15 169.201 519.731 169.41C519.319 169.624 518.888 169.955 518.439 170.404C517.989 170.852 517.549 171.437 517.119 172.158C516.778 172.728 516.524 173.286 516.357 173.833C516.189 174.38 516.114 174.895 516.131 175.38C516.148 175.864 516.252 176.307 516.443 176.71C516.647 177.11 516.943 177.442 517.329 177.707C517.611 177.9 517.942 178.02 518.322 178.068C518.711 178.122 519.149 178.091 519.637 177.977C520.134 177.868 520.693 177.672 521.316 177.39C521.944 177.099 522.637 176.718 523.396 176.245L523.675 176.064L523.938 176.793L523.659 176.975C522.688 177.574 521.795 178.043 520.979 178.382C520.172 178.727 519.438 178.957 518.779 179.072C518.119 179.187 517.533 179.199 517.02 179.108C516.515 179.022 516.078 178.852 515.707 178.598C515.183 178.239 514.784 177.806 514.508 177.298C514.232 176.79 514.069 176.247 514.017 175.668C513.97 175.081 514.023 174.479 514.176 173.863C514.341 173.244 514.594 172.649 514.935 172.079C515.476 171.174 516.083 170.432 516.757 169.854C517.445 169.274 518.136 168.849 518.83 168.58C519.524 168.311 520.196 168.193 520.847 168.225C521.498 168.258 522.065 168.439 522.548 168.77C522.919 169.024 523.196 169.291 523.381 169.571C523.565 169.851 523.684 170.128 523.737 170.4C523.79 170.673 523.791 170.928 523.74 171.165C523.69 171.401 523.612 171.608 523.507 171.784C523.401 171.96 523.255 172.12 523.067 172.263C522.885 172.398 522.671 172.499 522.426 172.568C522.193 172.633 521.941 172.667 521.667 172.668C521.399 172.662 521.126 172.605 520.849 172.498L520.939 172.063ZM524.221 176.633L523.95 176.802L523.671 176.983L523.408 176.254L523.687 176.072C524.144 175.783 524.564 175.468 524.949 175.129C525.346 174.787 525.698 174.455 526.004 174.133C526.318 173.816 526.588 173.535 526.815 173.288C527.041 173.042 527.22 172.875 527.352 172.788C527.46 172.72 527.576 172.688 527.7 172.69C527.837 172.689 527.966 172.701 528.088 172.725C528.217 172.755 528.332 172.792 528.43 172.835C528.537 172.885 528.61 172.923 528.651 172.951C528.828 173.072 528.922 173.19 528.934 173.304C528.953 173.424 528.905 173.58 528.79 173.773C528.735 173.865 528.577 174.082 528.316 174.423C528.069 174.762 527.756 175.191 527.377 175.711C527.011 176.229 526.603 176.817 526.152 177.477C525.714 178.134 525.277 178.827 524.841 179.557C524.526 180.085 524.3 180.521 524.163 180.864C524.031 181.199 523.956 181.467 523.938 181.667C523.929 181.873 523.956 182.028 524.019 182.13C524.091 182.239 524.175 182.326 524.272 182.392C524.401 182.48 524.581 182.521 524.812 182.514C525.043 182.507 525.355 182.431 525.748 182.287C526.146 182.134 526.636 181.903 527.218 181.593C527.806 181.275 528.522 180.855 529.366 180.335L529.657 180.162L529.919 180.891L529.629 181.064C528.952 181.475 528.28 181.877 527.614 182.271C526.955 182.671 526.328 182.997 525.734 183.252C525.147 183.511 524.609 183.68 524.12 183.759C523.635 183.828 523.236 183.756 522.922 183.54C522.591 183.314 522.345 183.051 522.184 182.751C522.035 182.449 521.976 182.083 522.005 181.654C522.042 181.231 522.176 180.731 522.405 180.156C522.648 179.579 523 178.904 523.461 178.133C523.591 177.915 523.726 177.688 523.867 177.454C524.012 177.21 524.17 176.964 524.342 176.716L524.221 176.633ZM531.085 170.986C530.91 171.279 530.665 171.46 530.352 171.529C530.051 171.595 529.76 171.531 529.478 171.338C529.204 171.15 529.028 170.894 528.95 170.569C528.877 170.235 528.928 169.921 529.103 169.628C529.273 169.343 529.515 169.166 529.829 169.097C530.142 169.028 530.436 169.088 530.71 169.276C530.992 169.469 531.165 169.729 531.231 170.058C531.304 170.391 531.255 170.701 531.085 170.986ZM534.643 181.451C534.835 181.358 535.033 181.216 535.238 181.026C535.45 180.84 535.627 180.631 535.767 180.396C535.937 180.111 536.017 179.816 536.005 179.513C535.993 179.21 535.81 178.937 535.455 178.694C535.222 178.534 534.932 178.459 534.585 178.469C534.238 178.48 533.854 178.589 533.435 178.798C533.023 179.012 532.592 179.343 532.143 179.792C531.694 180.24 531.254 180.825 530.823 181.546C530.482 182.116 530.228 182.674 530.061 183.221C529.893 183.768 529.818 184.283 529.835 184.768C529.852 185.252 529.956 185.695 530.147 186.098C530.351 186.498 530.647 186.83 531.033 187.095C531.315 187.288 531.646 187.408 532.027 187.456C532.415 187.51 532.853 187.479 533.341 187.365C533.838 187.256 534.398 187.06 535.02 186.778C535.648 186.487 536.341 186.106 537.1 185.633L537.379 185.452L537.642 186.181L537.363 186.363C536.392 186.962 535.499 187.431 534.683 187.77C533.876 188.115 533.142 188.345 532.483 188.46C531.824 188.575 531.237 188.587 530.724 188.496C530.219 188.41 529.782 188.24 529.411 187.986C528.887 187.627 528.488 187.194 528.212 186.686C527.936 186.178 527.773 185.635 527.721 185.056C527.675 184.469 527.727 183.867 527.88 183.251C528.045 182.632 528.298 182.037 528.639 181.467C529.18 180.562 529.787 179.82 530.462 179.242C531.149 178.662 531.84 178.237 532.534 177.968C533.228 177.699 533.9 177.581 534.551 177.613C535.202 177.646 535.769 177.827 536.252 178.158C536.623 178.412 536.9 178.679 537.085 178.959C537.27 179.239 537.388 179.516 537.441 179.788C537.494 180.061 537.495 180.316 537.445 180.553C537.394 180.789 537.316 180.996 537.211 181.172C537.106 181.348 536.959 181.508 536.771 181.651C536.589 181.786 536.375 181.887 536.13 181.956C535.898 182.021 535.645 182.055 535.371 182.056C535.103 182.05 534.83 181.993 534.553 181.886L534.643 181.451ZM537.555 191.315C537.701 191.414 537.923 191.431 538.224 191.365C538.537 191.296 538.905 191.164 539.328 190.97C539.751 190.775 540.221 190.53 540.738 190.234C541.255 189.939 541.803 189.611 542.381 189.251L542.66 189.07L542.923 189.799L542.644 189.98C541.686 190.577 540.848 191.077 540.129 191.483C539.423 191.885 538.802 192.192 538.267 192.405C537.736 192.608 537.281 192.716 536.9 192.726C536.532 192.734 536.211 192.644 535.937 192.457C535.574 192.208 535.333 191.871 535.212 191.446C535.105 191.018 535.135 190.454 535.303 189.754C535.485 189.051 535.82 188.194 536.311 187.183C536.793 186.167 537.455 184.955 538.296 183.546C539.488 181.551 540.59 179.896 541.603 178.581C542.62 177.257 543.539 176.233 544.358 175.506C545.191 174.777 545.917 174.323 546.535 174.144C547.166 173.962 547.682 174.009 548.085 174.285C548.327 174.45 548.466 174.693 548.502 175.013C548.551 175.33 548.415 175.757 548.094 176.294C547.844 176.713 547.526 177.169 547.141 177.661C546.756 178.154 546.329 178.67 545.859 179.21C545.388 179.75 544.883 180.302 544.342 180.865C543.807 181.42 543.263 181.969 542.711 182.512C542.164 183.047 541.619 183.571 541.074 184.084C540.534 184.589 540.021 185.058 539.534 185.493C538.967 186.557 538.513 187.44 538.174 188.141C537.848 188.839 537.612 189.404 537.468 189.837C537.331 190.275 537.274 190.608 537.296 190.836C537.324 191.056 537.41 191.215 537.555 191.315ZM547.129 176.057C547.234 175.881 547.296 175.729 547.316 175.601C547.336 175.473 547.302 175.378 547.213 175.318C547.124 175.257 546.958 175.326 546.714 175.525C546.47 175.725 546.171 176.016 545.817 176.4C545.471 176.789 545.087 177.252 544.664 177.789C544.249 178.332 543.815 178.915 543.363 179.539C542.916 180.154 542.471 180.794 542.028 181.46C541.586 182.125 541.17 182.774 540.781 183.405C541.415 182.8 542.043 182.167 542.665 181.506C543.3 180.842 543.9 180.19 544.464 179.549C545.029 178.908 545.54 178.289 545.998 177.693C546.461 177.089 546.838 176.544 547.129 176.057ZM543.686 195.763C543.968 195.956 544.299 196.076 544.679 196.124C545.068 196.177 545.506 196.147 545.994 196.032C546.491 195.924 547.05 195.728 547.673 195.446C548.301 195.155 548.994 194.773 549.753 194.301L550.032 194.12L550.294 194.849L550.016 195.03C549.045 195.629 548.152 196.098 547.336 196.438C546.528 196.782 545.795 197.012 545.136 197.128C544.484 197.249 543.902 197.263 543.389 197.172C542.876 197.08 542.434 196.908 542.064 196.654C541.54 196.295 541.14 195.862 540.865 195.354C540.589 194.846 540.425 194.303 540.374 193.724C540.327 193.137 540.384 192.538 540.545 191.927C540.702 191.302 540.951 190.705 541.292 190.135C541.832 189.229 542.444 188.491 543.126 187.918C543.806 187.332 544.5 186.91 545.211 186.653C545.929 186.4 546.63 186.301 547.312 186.356C547.995 186.41 548.611 186.625 549.158 187C549.714 187.381 550.05 187.817 550.164 188.309C550.287 188.807 550.216 189.278 549.951 189.722C549.695 190.15 549.338 190.472 548.879 190.69C548.425 190.898 547.889 191.045 547.271 191.13C546.666 191.211 545.996 191.249 545.262 191.242C544.533 191.227 543.768 191.205 542.968 191.177C542.764 191.652 542.623 192.116 542.544 192.57C542.471 193.016 542.462 193.441 542.516 193.844C542.575 194.239 542.699 194.602 542.888 194.932C543.082 195.254 543.348 195.531 543.686 195.763ZM548.215 189.065C548.415 188.729 548.484 188.405 548.422 188.09C548.368 187.782 548.216 187.542 547.966 187.371C547.757 187.227 547.488 187.155 547.159 187.154C546.835 187.145 546.474 187.246 546.075 187.457C545.682 187.66 545.263 187.982 544.818 188.422C544.374 188.862 543.926 189.459 543.476 190.213L543.303 190.503C543.667 190.539 544.087 190.549 544.562 190.532C545.051 190.513 545.53 190.451 546.001 190.348C546.471 190.245 546.903 190.092 547.297 189.889C547.703 189.683 548.009 189.409 548.215 189.065Z" fill="white"/>
<path d="M187.588 243.526C188.285 244.045 188.85 244.678 189.283 245.425C189.708 246.167 190.035 246.951 190.265 247.778C190.501 248.597 190.66 249.426 190.742 250.265C190.822 251.091 190.864 251.85 190.866 252.545C191.346 251.93 191.922 251.393 192.593 250.932C193.261 250.458 193.982 250.125 194.755 249.936C195.526 249.732 196.325 249.701 197.151 249.843C197.975 249.97 198.778 250.325 199.562 250.908C200.204 251.386 200.72 251.916 201.109 252.497C201.496 253.065 201.79 253.66 201.99 254.283C202.182 254.899 202.29 255.521 202.314 256.146C202.343 256.763 202.316 257.35 202.233 257.908C202.15 258.466 202.019 258.982 201.839 259.455C201.672 259.927 201.488 260.318 201.286 260.629C200.776 261.416 200.26 262.004 199.74 262.394C199.225 262.776 198.737 263.026 198.276 263.145C197.813 263.25 197.397 263.256 197.027 263.163C196.658 263.07 196.363 262.942 196.144 262.779C195.807 262.528 195.534 262.215 195.324 261.84C195.112 261.452 194.963 261.037 194.877 260.596C194.791 260.156 194.763 259.698 194.793 259.222C194.815 258.74 194.892 258.281 195.024 257.845L195.58 257.876C195.511 258.59 195.608 259.227 195.872 259.788C196.128 260.343 196.467 260.778 196.89 261.093C197.125 261.268 197.404 261.402 197.726 261.496C198.046 261.576 198.378 261.593 198.722 261.545C199.072 261.49 199.418 261.359 199.761 261.153C200.102 260.932 200.41 260.609 200.687 260.183C201.091 259.561 201.359 258.897 201.49 258.193C201.614 257.484 201.608 256.787 201.471 256.102C201.332 255.403 201.068 254.745 200.679 254.127C200.295 253.501 199.794 252.958 199.175 252.497C198.541 252.025 197.89 251.747 197.224 251.664C196.563 251.573 195.919 251.634 195.292 251.848C194.663 252.048 194.068 252.383 193.507 252.852C192.952 253.314 192.467 253.864 192.053 254.503C191.882 254.765 191.731 255.035 191.597 255.312C191.456 255.583 191.334 255.851 191.232 256.116C191.128 256.366 191.037 256.596 190.959 256.805C190.881 257.014 190.822 257.177 190.782 257.293L190.585 257.328L189.638 254.947C189.673 254.839 189.712 254.717 189.755 254.579C189.795 254.463 189.849 254.327 189.916 254.17C189.975 254.007 190.053 253.834 190.148 253.65C190.177 253.088 190.156 252.466 190.088 251.783C190.018 251.087 189.869 250.393 189.644 249.703C189.415 248.998 189.09 248.318 188.667 247.663C188.249 247 187.703 246.418 187.03 245.916C185.894 245.071 184.853 244.715 183.906 244.849C182.96 244.982 182.146 245.573 181.466 246.622C181.072 247.228 180.801 247.932 180.653 248.733C180.497 249.528 180.488 250.401 180.625 251.354C180.767 252.298 181.064 253.309 181.515 254.386C181.972 255.454 182.605 256.564 183.416 257.714C184.231 258.856 185.24 260.032 186.441 261.242C187.642 262.452 189.058 263.663 190.687 264.876C191.361 265.378 192.002 265.813 192.611 266.181C193.226 266.541 193.784 266.817 194.287 267.009C194.787 267.187 195.216 267.27 195.573 267.256C195.93 267.243 196.192 267.109 196.356 266.855C196.521 266.601 196.475 266.269 196.218 265.859C195.959 265.436 195.567 264.974 195.043 264.474C194.517 263.961 193.903 263.431 193.2 262.884C192.503 262.329 191.795 261.783 191.074 261.246C189.977 260.43 188.937 259.679 187.952 258.995C186.959 258.305 186.07 257.697 185.283 257.172C184.502 256.64 183.846 256.2 183.316 255.854C182.785 255.507 182.431 255.274 182.254 255.154L182.768 253.423C182.857 253.428 183.082 253.511 183.443 253.671C183.804 253.83 184.267 254.065 184.832 254.377C185.389 254.682 186.025 255.064 186.738 255.522C187.449 255.966 188.196 256.48 188.979 257.063C190.303 258.048 191.44 258.955 192.389 259.783C193.336 260.598 194.133 261.349 194.779 262.036C195.417 262.718 195.918 263.333 196.281 263.883C196.65 264.425 196.907 264.914 197.054 265.351C197.197 265.774 197.251 266.148 197.214 266.473C197.191 266.796 197.104 267.072 196.956 267.301C196.631 267.801 196.174 268.129 195.585 268.285C195.008 268.439 194.364 268.458 193.65 268.34C192.929 268.216 192.176 267.971 191.391 267.605C190.598 267.234 189.833 266.774 189.097 266.226C188.039 265.438 187.013 264.523 186.018 263.478C185.023 262.434 184.119 261.311 183.306 260.111C182.486 258.905 181.785 257.648 181.204 256.341C180.616 255.028 180.211 253.719 179.99 252.412C179.762 251.1 179.741 249.815 179.93 248.558C180.116 247.287 180.568 246.099 181.285 244.993C181.695 244.363 182.146 243.854 182.641 243.469C183.132 243.07 183.652 242.806 184.199 242.679C184.738 242.546 185.295 242.548 185.869 242.683C186.443 242.819 187.016 243.1 187.588 243.526ZM200.772 248.237L200.928 248.535L201.095 248.842L200.403 249.074L200.236 248.768C199.97 248.266 199.679 247.8 199.365 247.372C199.048 246.929 198.74 246.536 198.44 246.192C198.146 245.839 197.885 245.535 197.656 245.279C197.427 245.024 197.272 244.824 197.192 244.679C197.13 244.56 197.1 244.435 197.104 244.304C197.105 244.159 197.118 244.023 197.143 243.895C197.173 243.759 197.209 243.641 197.252 243.539C197.3 243.429 197.337 243.354 197.364 243.313C197.481 243.132 197.593 243.04 197.701 243.035C197.814 243.022 197.961 243.082 198.141 243.217C198.227 243.281 198.429 243.462 198.747 243.759C199.063 244.043 199.463 244.401 199.948 244.835C200.431 245.255 200.98 245.725 201.596 246.244C202.209 246.749 202.856 247.255 203.538 247.763C204.031 248.13 204.439 248.397 204.761 248.564C205.075 248.724 205.326 248.82 205.515 248.852C205.709 248.875 205.855 248.856 205.953 248.795C206.055 248.726 206.139 248.642 206.203 248.544C206.288 248.413 206.329 248.224 206.325 247.979C206.322 247.733 206.255 247.398 206.124 246.973C205.986 246.542 205.775 246.008 205.491 245.371C205.199 244.729 204.814 243.944 204.335 243.017L204.176 242.698L204.867 242.465L205.026 242.784C205.404 243.527 205.774 244.264 206.136 244.995C206.503 245.718 206.802 246.402 207.034 247.048C207.27 247.686 207.422 248.267 207.489 248.791C207.548 249.308 207.474 249.727 207.266 250.046C207.048 250.382 206.797 250.626 206.512 250.779C206.225 250.917 205.879 250.957 205.475 250.9C205.076 250.834 204.608 250.661 204.069 250.381C203.527 250.088 202.896 249.673 202.176 249.136C201.972 248.985 201.761 248.827 201.541 248.664C201.314 248.495 201.084 248.312 200.852 248.114L200.772 248.237ZM195.545 240.61C195.819 240.814 195.987 241.085 196.047 241.421C196.105 241.744 196.041 242.048 195.855 242.335C195.674 242.614 195.43 242.784 195.122 242.846C194.806 242.903 194.511 242.829 194.237 242.625C193.971 242.427 193.808 242.16 193.747 241.823C193.687 241.487 193.747 241.179 193.928 240.901C194.114 240.614 194.362 240.446 194.672 240.398C194.988 240.341 195.279 240.412 195.545 240.61ZM205.462 237.495C205.377 237.286 205.246 237.067 205.069 236.838C204.898 236.601 204.702 236.401 204.483 236.238C204.216 236.04 203.94 235.937 203.654 235.931C203.368 235.924 203.108 236.101 202.874 236.462C202.72 236.699 202.645 237.002 202.65 237.37C202.655 237.738 202.753 238.151 202.944 238.609C203.14 239.059 203.446 239.536 203.862 240.04C204.278 240.545 204.823 241.047 205.497 241.549C206.03 241.945 206.553 242.25 207.066 242.462C207.579 242.673 208.064 242.785 208.521 242.797C208.978 242.81 209.397 242.727 209.779 242.55C210.159 242.359 210.477 242.067 210.732 241.673C210.918 241.387 211.036 241.043 211.086 240.644C211.142 240.235 211.12 239.769 211.019 239.244C210.923 238.712 210.746 238.106 210.489 237.429C210.224 236.745 209.874 235.987 209.439 235.153L209.272 234.846L209.964 234.614L210.131 234.92C210.682 235.987 211.111 236.963 211.42 237.848C211.733 238.725 211.94 239.517 212.039 240.223C212.139 240.929 212.142 241.551 212.048 242.088C211.96 242.618 211.794 243.071 211.549 243.448C211.203 243.981 210.789 244.377 210.307 244.637C209.824 244.898 209.309 245.037 208.763 245.055C208.209 245.068 207.642 244.974 207.063 244.774C206.482 244.56 205.925 244.255 205.392 243.858C204.546 243.229 203.856 242.538 203.321 241.788C202.783 241.023 202.392 240.264 202.149 239.512C201.905 238.76 201.803 238.04 201.842 237.352C201.882 236.665 202.061 236.075 202.38 235.584C202.625 235.207 202.88 234.93 203.147 234.752C203.414 234.573 203.676 234.465 203.934 234.426C204.191 234.387 204.431 234.402 204.654 234.47C204.877 234.539 205.07 234.634 205.235 234.757C205.4 234.879 205.548 235.044 205.68 235.252C205.805 235.454 205.897 235.687 205.958 235.951C206.017 236.201 206.045 236.471 206.043 236.761C206.033 237.045 205.975 237.331 205.871 237.617L205.462 237.495ZM209.816 234.304L209.972 234.602L210.139 234.908L209.447 235.141L209.28 234.834C209.014 234.332 208.723 233.867 208.409 233.438C208.092 232.996 207.784 232.602 207.484 232.258C207.19 231.905 206.929 231.601 206.7 231.346C206.47 231.09 206.316 230.89 206.236 230.745C206.173 230.626 206.144 230.501 206.148 230.37C206.149 230.225 206.162 230.089 206.186 229.961C206.216 229.826 206.253 229.707 206.296 229.605C206.344 229.495 206.381 229.42 206.408 229.379C206.525 229.199 206.637 229.106 206.745 229.101C206.858 229.088 207.004 229.149 207.185 229.283C207.271 229.347 207.473 229.528 207.791 229.826C208.107 230.109 208.507 230.468 208.992 230.902C209.475 231.322 210.024 231.791 210.639 232.31C211.253 232.816 211.9 233.322 212.582 233.829C213.075 234.196 213.483 234.463 213.804 234.63C214.118 234.791 214.37 234.887 214.559 234.918C214.753 234.941 214.899 234.922 214.996 234.861C215.099 234.792 215.183 234.708 215.247 234.61C215.332 234.479 215.372 234.291 215.369 234.045C215.366 233.8 215.299 233.464 215.168 233.039C215.03 232.608 214.819 232.074 214.535 231.438C214.243 230.795 213.858 230.01 213.379 229.083L213.22 228.764L213.911 228.532L214.07 228.851C214.448 229.593 214.818 230.33 215.18 231.061C215.547 231.784 215.846 232.469 216.078 233.115C216.314 233.753 216.466 234.333 216.533 234.857C216.592 235.375 216.518 235.793 216.31 236.113C216.092 236.449 215.841 236.693 215.556 236.845C215.269 236.984 214.923 237.024 214.519 236.966C214.12 236.9 213.652 236.727 213.113 236.448C212.571 236.154 211.94 235.739 211.22 235.203C211.016 235.051 210.804 234.894 210.585 234.73C210.358 234.561 210.128 234.378 209.896 234.181L209.816 234.304ZM204.589 226.677C204.863 226.881 205.031 227.151 205.091 227.488C205.149 227.81 205.085 228.115 204.899 228.401C204.718 228.68 204.474 228.85 204.166 228.913C203.85 228.97 203.555 228.896 203.281 228.692C203.015 228.493 202.851 228.226 202.791 227.889C202.731 227.553 202.791 227.245 202.972 226.967C203.158 226.68 203.406 226.513 203.716 226.464C204.032 226.408 204.323 226.478 204.589 226.677ZM214.506 223.562C214.421 223.353 214.29 223.134 214.113 222.905C213.941 222.668 213.746 222.468 213.527 222.304C213.26 222.106 212.984 222.004 212.698 221.997C212.412 221.991 212.151 222.168 211.918 222.528C211.763 222.766 211.689 223.068 211.694 223.437C211.699 223.805 211.797 224.218 211.987 224.676C212.184 225.125 212.49 225.602 212.906 226.107C213.322 226.611 213.867 227.114 214.541 227.615C215.074 228.012 215.596 228.316 216.11 228.528C216.623 228.74 217.108 228.852 217.565 228.864C218.021 228.876 218.441 228.793 218.823 228.616C219.203 228.425 219.52 228.133 219.776 227.74C219.962 227.453 220.08 227.11 220.13 226.71C220.186 226.302 220.163 225.836 220.062 225.311C219.967 224.778 219.79 224.173 219.533 223.495C219.268 222.812 218.918 222.053 218.483 221.219L218.316 220.913L219.007 220.68L219.174 220.987C219.725 222.053 220.155 223.029 220.463 223.914C220.777 224.792 220.983 225.583 221.083 226.289C221.183 226.995 221.186 227.617 221.092 228.155C221.004 228.684 220.837 229.138 220.593 229.515C220.247 230.047 219.833 230.443 219.351 230.704C218.868 230.964 218.353 231.103 217.807 231.122C217.253 231.134 216.686 231.041 216.107 230.841C215.526 230.627 214.969 230.321 214.436 229.925C213.59 229.295 212.9 228.605 212.364 227.854C211.827 227.089 211.436 226.331 211.192 225.578C210.949 224.826 210.847 224.106 210.886 223.419C210.926 222.731 211.105 222.142 211.424 221.65C211.669 221.274 211.924 220.996 212.191 220.818C212.458 220.64 212.72 220.531 212.977 220.492C213.235 220.453 213.475 220.468 213.698 220.537C213.921 220.605 214.114 220.701 214.279 220.823C214.443 220.946 214.592 221.111 214.724 221.319C214.849 221.521 214.941 221.754 215.002 222.018C215.061 222.268 215.089 222.538 215.087 222.828C215.076 223.112 215.019 223.397 214.914 223.684L214.506 223.562ZM223.846 221.093C223.942 220.945 223.96 220.71 223.903 220.388C223.842 220.051 223.723 219.653 223.546 219.193C223.368 218.732 223.143 218.219 222.872 217.653C222.601 217.086 222.3 216.485 221.968 215.85L221.801 215.543L222.493 215.311L222.66 215.617C223.208 216.67 223.668 217.589 224.04 218.377C224.41 219.15 224.691 219.827 224.883 220.407C225.068 220.982 225.163 221.472 225.167 221.876C225.17 222.267 225.08 222.601 224.9 222.879C224.66 223.248 224.339 223.483 223.937 223.584C223.532 223.671 223 223.604 222.343 223.382C221.683 223.146 220.88 222.736 219.934 222.153C218.982 221.579 217.848 220.801 216.532 219.822C214.668 218.434 213.123 217.162 211.898 216.007C210.664 214.846 209.711 213.809 209.038 212.895C208.363 211.966 207.945 211.169 207.784 210.503C207.622 209.823 207.673 209.279 207.939 208.869C208.099 208.623 208.329 208.491 208.632 208.473C208.931 208.441 209.332 208.612 209.833 208.985C210.225 209.277 210.65 209.642 211.109 210.08C211.568 210.519 212.048 211.005 212.551 211.537C213.054 212.069 213.567 212.639 214.09 213.247C214.605 213.85 215.115 214.46 215.62 215.079C216.117 215.692 216.603 216.303 217.079 216.912C217.547 217.516 217.982 218.089 218.385 218.632C219.381 219.3 220.206 219.835 220.862 220.239C221.516 220.628 222.046 220.913 222.451 221.093C222.862 221.266 223.175 221.347 223.391 221.337C223.599 221.322 223.75 221.24 223.846 221.093ZM209.597 209.994C209.432 209.871 209.29 209.795 209.169 209.766C209.048 209.737 208.959 209.768 208.9 209.858C208.842 209.948 208.905 210.129 209.089 210.399C209.274 210.67 209.544 211.005 209.901 211.405C210.263 211.795 210.694 212.232 211.195 212.714C211.7 213.188 212.244 213.683 212.826 214.201C213.4 214.714 213.997 215.225 214.618 215.736C215.239 216.247 215.845 216.728 216.435 217.18C215.873 216.47 215.285 215.765 214.671 215.064C214.054 214.35 213.447 213.674 212.851 213.035C212.254 212.397 211.678 211.816 211.123 211.294C210.56 210.765 210.051 210.332 209.597 209.994ZM228.126 214.875C228.312 214.588 228.43 214.245 228.48 213.845C228.536 213.437 228.513 212.971 228.412 212.446C228.317 211.913 228.14 211.308 227.883 210.631C227.618 209.947 227.268 209.189 226.833 208.355L226.666 208.048L227.357 207.816L227.524 208.122C228.075 209.188 228.505 210.164 228.813 211.05C229.127 211.927 229.333 212.719 229.433 213.425C229.538 214.122 229.544 214.74 229.45 215.278C229.357 215.816 229.188 216.273 228.943 216.65C228.597 217.182 228.183 217.579 227.701 217.839C227.218 218.099 226.703 218.239 226.157 218.257C225.603 218.27 225.039 218.172 224.465 217.964C223.879 217.758 223.319 217.457 222.786 217.06C221.94 216.43 221.252 215.736 220.722 214.977C220.179 214.221 219.791 213.458 219.558 212.689C219.331 211.912 219.247 211.164 219.308 210.444C219.369 209.723 219.58 209.085 219.942 208.528C220.308 207.963 220.725 207.635 221.19 207.544C221.661 207.445 222.104 207.55 222.519 207.859C222.919 208.156 223.218 208.555 223.416 209.055C223.607 209.549 223.737 210.126 223.808 210.787C223.877 211.433 223.903 212.145 223.886 212.922C223.862 213.694 223.83 214.503 223.792 215.349C224.237 215.595 224.673 215.773 225.1 215.885C225.519 215.991 225.92 216.027 226.301 215.995C226.674 215.957 227.018 215.848 227.331 215.669C227.638 215.484 227.902 215.219 228.126 214.875ZM221.875 209.657C221.562 209.424 221.256 209.33 220.959 209.376C220.667 209.414 220.439 209.56 220.274 209.814C220.136 210.027 220.064 210.308 220.059 210.656C220.046 210.999 220.136 211.388 220.329 211.823C220.515 212.253 220.812 212.717 221.221 213.216C221.629 213.714 222.186 214.226 222.891 214.751L223.161 214.952C223.201 214.568 223.216 214.124 223.207 213.619C223.195 213.1 223.144 212.588 223.054 212.084C222.963 211.579 222.825 211.111 222.639 210.682C222.451 210.238 222.196 209.896 221.875 209.657Z" fill="white"/>
<path d="M604.018 497.228C603.332 496.694 602.78 496.05 602.363 495.293C601.953 494.543 601.642 493.751 601.429 492.919C601.21 492.095 601.068 491.263 601.002 490.422C600.939 489.595 600.913 488.834 600.924 488.14C600.432 488.744 599.846 489.27 599.167 489.717C598.489 490.178 597.762 490.495 596.985 490.669C596.211 490.857 595.412 490.872 594.589 490.713C593.768 490.569 592.973 490.198 592.202 489.598C591.569 489.107 591.065 488.566 590.687 487.977C590.312 487.401 590.031 486.8 589.844 486.173C589.664 485.552 589.569 484.929 589.557 484.303C589.54 483.685 589.579 483.098 589.673 482.542C589.768 481.986 589.91 481.473 590.099 481.003C590.275 480.535 590.467 480.147 590.675 479.84C591.201 479.064 591.728 478.486 592.256 478.106C592.778 477.735 593.271 477.494 593.734 477.385C594.198 477.29 594.615 477.292 594.982 477.393C595.35 477.493 595.641 477.627 595.857 477.795C596.189 478.053 596.455 478.371 596.658 478.751C596.862 479.144 597.002 479.562 597.079 480.004C597.156 480.447 597.175 480.905 597.135 481.381C597.103 481.862 597.017 482.319 596.876 482.753L596.322 482.711C596.405 481.998 596.321 481.358 596.069 480.792C595.824 480.232 595.494 479.79 595.078 479.466C594.846 479.287 594.57 479.146 594.25 479.046C593.932 478.959 593.601 478.936 593.256 478.976C592.905 479.024 592.556 479.148 592.209 479.348C591.864 479.561 591.55 479.878 591.265 480.298C590.848 480.913 590.567 481.57 590.422 482.272C590.284 482.979 590.276 483.677 590.398 484.364C590.523 485.066 590.774 485.73 591.15 486.356C591.521 486.99 592.011 487.543 592.62 488.017C593.245 488.502 593.889 488.793 594.553 488.89C595.212 488.995 595.857 488.947 596.488 488.746C597.121 488.559 597.722 488.236 598.291 487.778C598.855 487.328 599.351 486.787 599.779 486.157C599.954 485.898 600.111 485.631 600.25 485.357C600.397 485.088 600.524 484.823 600.631 484.561C600.74 484.312 600.836 484.084 600.918 483.876C601 483.669 601.062 483.507 601.105 483.392L601.303 483.361L602.2 485.762C602.163 485.869 602.122 485.991 602.076 486.128C602.033 486.243 601.977 486.378 601.907 486.534C601.845 486.695 601.764 486.867 601.664 487.048C601.625 487.61 601.632 488.233 601.687 488.917C601.743 489.615 601.877 490.312 602.089 491.007C602.303 491.717 602.614 492.403 603.024 493.067C603.428 493.739 603.961 494.333 604.624 494.848C605.742 495.717 606.776 496.094 607.724 495.98C608.673 495.866 609.498 495.291 610.199 494.256C610.605 493.658 610.889 492.96 611.054 492.162C611.225 491.37 611.253 490.496 611.135 489.541C611.012 488.593 610.736 487.577 610.306 486.49C609.872 485.412 609.261 484.289 608.475 483.122C607.682 481.963 606.698 480.767 605.522 479.532C604.346 478.297 602.956 477.056 601.353 475.809C600.69 475.294 600.057 474.846 599.456 474.465C598.85 474.092 598.297 473.804 597.798 473.602C597.302 473.414 596.875 473.323 596.518 473.329C596.161 473.335 595.897 473.463 595.727 473.714C595.557 473.964 595.597 474.297 595.845 474.712C596.096 475.142 596.478 475.612 596.991 476.122C597.507 476.646 598.11 477.189 598.801 477.751C599.486 478.32 600.183 478.881 600.893 479.432C601.972 480.271 602.997 481.043 603.967 481.748C604.945 482.459 605.822 483.085 606.597 483.625C607.367 484.174 608.014 484.628 608.537 484.985C609.06 485.342 609.409 485.583 609.584 485.706L609.035 487.428C608.946 487.42 608.723 487.333 608.365 487.166C608.007 486.999 607.55 486.754 606.991 486.431C606.441 486.114 605.814 485.72 605.11 485.247C604.409 484.788 603.672 484.259 602.901 483.659C601.598 482.647 600.481 481.716 599.549 480.868C598.619 480.034 597.838 479.267 597.206 478.566C596.582 477.871 596.094 477.245 595.742 476.688C595.385 476.138 595.137 475.644 595 475.204C594.865 474.778 594.819 474.403 594.862 474.078C594.892 473.756 594.984 473.482 595.137 473.255C595.472 472.762 595.935 472.443 596.527 472.299C597.106 472.157 597.751 472.152 598.462 472.285C599.18 472.423 599.928 472.684 600.705 473.065C601.49 473.453 602.244 473.929 602.969 474.492C604.01 475.301 605.017 476.238 605.991 477.304C606.964 478.369 607.844 479.51 608.632 480.727C609.428 481.95 610.103 483.221 610.657 484.541C611.218 485.866 611.596 487.184 611.79 488.495C611.993 489.812 611.987 491.098 611.773 492.351C611.562 493.618 611.086 494.798 610.346 495.889C609.924 496.512 609.463 497.01 608.961 497.386C608.462 497.775 607.937 498.028 607.388 498.144C606.846 498.266 606.29 498.253 605.719 498.105C605.148 497.958 604.581 497.665 604.018 497.228ZM590.938 492.245L590.789 491.944L590.628 491.634L591.323 491.415L591.484 491.725C591.74 492.233 592.021 492.704 592.327 493.139C592.635 493.588 592.935 493.988 593.227 494.339C593.514 494.697 593.769 495.007 593.993 495.267C594.216 495.527 594.367 495.731 594.444 495.877C594.504 495.998 594.531 496.123 594.524 496.254C594.52 496.399 594.505 496.535 594.477 496.662C594.445 496.797 594.406 496.915 594.361 497.016C594.311 497.125 594.272 497.2 594.245 497.24C594.124 497.418 594.01 497.508 593.902 497.511C593.789 497.522 593.644 497.458 593.466 497.32C593.382 497.254 593.183 497.069 592.871 496.765C592.562 496.475 592.169 496.108 591.693 495.664C591.219 495.234 590.68 494.753 590.075 494.221C589.472 493.704 588.836 493.184 588.165 492.663C587.679 492.285 587.277 492.01 586.959 491.836C586.648 491.669 586.399 491.568 586.211 491.533C586.018 491.506 585.871 491.522 585.773 491.581C585.668 491.648 585.583 491.73 585.517 491.827C585.43 491.956 585.385 492.144 585.384 492.389C585.382 492.635 585.442 492.972 585.564 493.4C585.694 493.834 585.894 494.372 586.165 495.014C586.443 495.663 586.812 496.456 587.272 497.393L587.424 497.715L586.729 497.934L586.576 497.612C586.214 496.861 585.859 496.116 585.512 495.378C585.16 494.647 584.875 493.956 584.657 493.305C584.433 492.663 584.293 492.079 584.237 491.554C584.189 491.035 584.271 490.617 584.485 490.302C584.709 489.971 584.966 489.732 585.253 489.585C585.543 489.452 585.89 489.419 586.292 489.485C586.689 489.559 587.154 489.742 587.687 490.033C588.222 490.337 588.844 490.765 589.554 491.317C589.754 491.473 589.962 491.634 590.178 491.802C590.402 491.976 590.628 492.164 590.856 492.366L590.938 492.245ZM596.007 499.98C595.738 499.771 595.576 499.497 595.522 499.159C595.471 498.835 595.541 498.532 595.733 498.249C595.919 497.974 596.167 497.809 596.476 497.752C596.792 497.702 597.085 497.782 597.355 497.992C597.617 498.196 597.775 498.466 597.829 498.804C597.882 499.142 597.816 499.448 597.63 499.723C597.438 500.006 597.186 500.169 596.875 500.211C596.559 500.261 596.27 500.184 596.007 499.98ZM586.035 502.893C586.115 503.104 586.242 503.325 586.414 503.558C586.58 503.798 586.772 504.002 586.987 504.17C587.25 504.374 587.524 504.482 587.81 504.495C588.095 504.507 588.359 504.335 588.6 503.98C588.759 503.745 588.84 503.444 588.842 503.075C588.844 502.707 588.755 502.292 588.574 501.83C588.387 501.376 588.09 500.893 587.685 500.38C587.279 499.867 586.744 499.353 586.081 498.837C585.557 498.43 585.041 498.115 584.532 497.892C584.024 497.67 583.541 497.548 583.085 497.527C582.628 497.505 582.208 497.579 581.822 497.748C581.439 497.932 581.116 498.218 580.853 498.606C580.661 498.889 580.536 499.229 580.477 499.628C580.413 500.035 580.427 500.502 580.517 501.029C580.602 501.564 580.766 502.173 581.009 502.856C581.26 503.545 581.595 504.311 582.012 505.154L582.173 505.464L581.478 505.682L581.317 505.372C580.788 504.294 580.378 503.31 580.088 502.418C579.792 501.534 579.602 500.738 579.517 500.03C579.431 499.322 579.441 498.699 579.545 498.163C579.644 497.635 579.82 497.186 580.072 496.814C580.428 496.288 580.85 495.9 581.337 495.65C581.825 495.399 582.342 495.27 582.888 495.263C583.442 495.262 584.007 495.367 584.581 495.579C585.158 495.805 585.708 496.122 586.233 496.53C587.065 497.177 587.741 497.882 588.261 498.643C588.783 499.419 589.158 500.186 589.386 500.944C589.614 501.701 589.702 502.423 589.649 503.11C589.595 503.797 589.404 504.382 589.075 504.867C588.823 505.239 588.562 505.512 588.292 505.684C588.022 505.857 587.758 505.96 587.5 505.994C587.241 506.028 587.002 506.008 586.78 505.935C586.559 505.862 586.368 505.762 586.206 505.636C586.044 505.51 585.899 505.342 585.771 505.132C585.651 504.927 585.563 504.692 585.507 504.427C585.454 504.175 585.431 503.905 585.439 503.615C585.455 503.331 585.518 503.047 585.629 502.762L586.035 502.893ZM581.618 505.995L581.469 505.694L581.309 505.384L582.004 505.166L582.165 505.476C582.421 505.984 582.702 506.455 583.008 506.89C583.315 507.339 583.615 507.739 583.907 508.089C584.194 508.448 584.449 508.758 584.673 509.018C584.897 509.278 585.048 509.482 585.125 509.628C585.185 509.749 585.211 509.874 585.205 510.005C585.201 510.15 585.185 510.286 585.158 510.413C585.125 510.548 585.087 510.666 585.042 510.767C584.991 510.876 584.953 510.951 584.925 510.991C584.805 511.169 584.691 511.259 584.583 511.262C584.47 511.273 584.324 511.209 584.147 511.071C584.062 511.005 583.864 510.82 583.552 510.516C583.242 510.226 582.849 509.859 582.373 509.415C581.9 508.985 581.36 508.504 580.756 507.972C580.153 507.454 579.516 506.935 578.845 506.413C578.36 506.036 577.958 505.76 577.64 505.587C577.329 505.42 577.08 505.319 576.892 505.284C576.698 505.257 576.552 505.273 576.453 505.332C576.349 505.399 576.264 505.481 576.198 505.578C576.11 505.707 576.066 505.894 576.064 506.14C576.062 506.386 576.123 506.722 576.245 507.15C576.374 507.584 576.574 508.123 576.845 508.765C577.124 509.414 577.493 510.207 577.953 511.144L578.105 511.466L577.41 511.685L577.257 511.362C576.895 510.612 576.54 509.867 576.193 509.128C575.841 508.398 575.555 507.707 575.337 507.056C575.114 506.413 574.974 505.829 574.918 505.304C574.869 504.785 574.952 504.368 575.165 504.053C575.39 503.721 575.646 503.482 575.934 503.336C576.224 503.203 576.57 503.17 576.973 503.236C577.37 503.31 577.835 503.493 578.368 503.783C578.903 504.088 579.525 504.516 580.234 505.068C580.435 505.223 580.643 505.385 580.859 505.553C581.082 505.727 581.308 505.915 581.536 506.117L581.618 505.995ZM586.688 513.731C586.418 513.522 586.256 513.248 586.203 512.91C586.152 512.586 586.222 512.283 586.413 512C586.6 511.725 586.847 511.559 587.156 511.503C587.473 511.453 587.766 511.533 588.036 511.743C588.298 511.946 588.456 512.217 588.509 512.555C588.563 512.893 588.497 513.199 588.31 513.474C588.118 513.757 587.867 513.92 587.556 513.962C587.239 514.012 586.95 513.935 586.688 513.731ZM576.715 516.643C576.796 516.854 576.922 517.076 577.094 517.309C577.261 517.549 577.452 517.753 577.668 517.921C577.93 518.125 578.204 518.233 578.49 518.245C578.776 518.258 579.04 518.086 579.281 517.73C579.439 517.496 579.52 517.195 579.523 516.826C579.525 516.458 579.436 516.043 579.254 515.581C579.067 515.127 578.771 514.644 578.365 514.131C577.959 513.618 577.425 513.104 576.762 512.588C576.238 512.181 575.721 511.866 575.213 511.643C574.704 511.421 574.222 511.299 573.765 511.277C573.309 511.256 572.888 511.33 572.503 511.499C572.119 511.683 571.796 511.968 571.533 512.356C571.341 512.639 571.216 512.98 571.158 513.379C571.094 513.786 571.107 514.253 571.197 514.78C571.282 515.315 571.446 515.924 571.69 516.607C571.941 517.296 572.275 518.062 572.693 518.905L572.854 519.215L572.158 519.433L571.997 519.123C571.468 518.045 571.059 517.06 570.768 516.168C570.473 515.284 570.282 514.488 570.197 513.78C570.112 513.072 570.122 512.45 570.226 511.914C570.325 511.386 570.5 510.936 570.752 510.565C571.108 510.039 571.53 509.651 572.018 509.401C572.505 509.15 573.022 509.021 573.569 509.014C574.123 509.013 574.687 509.118 575.262 509.33C575.838 509.556 576.389 509.873 576.913 510.281C577.746 510.928 578.422 511.632 578.942 512.394C579.464 513.17 579.839 513.937 580.067 514.694C580.295 515.452 580.383 516.174 580.329 516.861C580.276 517.547 580.085 518.133 579.756 518.618C579.504 518.99 579.243 519.262 578.973 519.435C578.703 519.608 578.439 519.711 578.18 519.745C577.922 519.778 577.682 519.759 577.461 519.686C577.24 519.612 577.048 519.513 576.886 519.387C576.724 519.261 576.58 519.093 576.451 518.882C576.331 518.678 576.243 518.443 576.188 518.177C576.134 517.926 576.112 517.656 576.12 517.366C576.136 517.082 576.199 516.798 576.309 516.513L576.715 516.643ZM567.331 518.921C567.233 519.067 567.209 519.301 567.26 519.625C567.314 519.963 567.425 520.364 567.593 520.828C567.761 521.292 567.975 521.81 568.235 522.382C568.495 522.954 568.783 523.561 569.102 524.204L569.262 524.514L568.567 524.732L568.406 524.422C567.879 523.358 567.438 522.429 567.082 521.634C566.728 520.853 566.461 520.17 566.281 519.586C566.108 519.007 566.023 518.515 566.026 518.111C566.032 517.72 566.128 517.387 566.314 517.113C566.561 516.749 566.886 516.52 567.291 516.427C567.697 516.349 568.227 516.427 568.88 516.663C569.534 516.912 570.329 517.338 571.262 517.941C572.202 518.535 573.319 519.336 574.614 520.343C576.449 521.769 577.967 523.072 579.169 524.253C580.378 525.439 581.309 526.497 581.963 527.425C582.62 528.367 583.021 529.173 583.168 529.842C583.317 530.526 583.254 531.07 582.98 531.474C582.816 531.716 582.583 531.843 582.28 531.855C581.98 531.881 581.583 531.702 581.09 531.319C580.704 531.019 580.287 530.645 579.837 530.197C579.388 529.749 578.917 529.253 578.425 528.711C577.934 528.168 577.433 527.587 576.922 526.968C576.419 526.355 575.922 525.734 575.43 525.105C574.946 524.482 574.472 523.861 574.009 523.242C573.554 522.628 573.13 522.046 572.738 521.495C571.757 520.806 570.943 520.254 570.295 519.837C569.65 519.434 569.127 519.138 568.725 518.949C568.318 518.768 568.006 518.681 567.791 518.686C567.583 518.697 567.43 518.776 567.331 518.921ZM581.347 530.315C581.508 530.441 581.649 530.519 581.769 530.551C581.889 530.582 581.979 530.554 582.04 530.465C582.1 530.376 582.041 530.194 581.862 529.919C581.683 529.645 581.42 529.304 581.071 528.897C580.717 528.499 580.295 528.054 579.805 527.561C579.309 527.077 578.775 526.57 578.205 526.04C577.642 525.516 577.055 524.992 576.445 524.468C575.834 523.944 575.239 523.451 574.658 522.987C575.205 523.709 575.779 524.426 576.379 525.139C576.981 525.866 577.573 526.555 578.156 527.206C578.739 527.856 579.303 528.449 579.848 528.983C580.4 529.523 580.899 529.967 581.347 530.315ZM562.929 525.052C562.737 525.335 562.612 525.676 562.553 526.075C562.49 526.482 562.503 526.949 562.593 527.476C562.678 528.011 562.842 528.62 563.085 529.303C563.337 529.992 563.671 530.757 564.088 531.6L564.249 531.91L563.554 532.129L563.393 531.819C562.864 530.741 562.454 529.756 562.164 528.864C561.868 527.98 561.678 527.184 561.593 526.476C561.502 525.776 561.509 525.158 561.613 524.622C561.718 524.086 561.896 523.632 562.148 523.26C562.504 522.735 562.926 522.347 563.413 522.097C563.901 521.846 564.418 521.717 564.964 521.71C565.519 521.709 566.08 521.818 566.649 522.038C567.231 522.256 567.784 522.569 568.309 522.976C569.141 523.624 569.815 524.332 570.329 525.102C570.856 525.87 571.229 526.641 571.446 527.414C571.658 528.196 571.726 528.947 571.651 529.666C571.575 530.385 571.352 531.019 570.979 531.569C570.601 532.127 570.178 532.446 569.711 532.527C569.239 532.617 568.798 532.503 568.389 532.185C567.996 531.879 567.706 531.474 567.517 530.97C567.337 530.472 567.218 529.892 567.16 529.23C567.105 528.582 567.094 527.87 567.126 527.093C567.166 526.322 567.213 525.513 567.269 524.667C566.829 524.412 566.397 524.225 565.973 524.104C565.556 523.99 565.157 523.945 564.775 523.97C564.401 524 564.056 524.102 563.738 524.275C563.429 524.454 563.159 524.713 562.929 525.052ZM569.07 530.4C569.378 530.639 569.681 530.739 569.979 530.699C570.272 530.667 570.503 530.526 570.673 530.275C570.815 530.065 570.892 529.786 570.905 529.438C570.925 529.095 570.843 528.704 570.658 528.265C570.481 527.831 570.194 527.36 569.795 526.854C569.397 526.347 568.851 525.823 568.157 525.284L567.891 525.077C567.844 525.46 567.82 525.904 567.819 526.409C567.82 526.929 567.861 527.442 567.941 527.948C568.021 528.455 568.15 528.925 568.327 529.359C568.506 529.807 568.754 530.154 569.07 530.4Z" fill="white"/>
<path d="M269.422 594.687C269.924 593.978 270.531 593.416 271.242 593.001C271.948 592.595 272.691 592.295 273.473 592.102C274.247 591.902 275.029 591.784 275.819 591.747C276.596 591.712 277.31 591.715 277.963 591.755C277.395 591.207 276.903 590.562 276.484 589.821C276.053 589.081 275.756 588.294 275.594 587.46C275.42 586.628 275.407 585.777 275.557 584.907C275.694 584.039 276.045 583.207 276.609 582.41C277.071 581.756 277.58 581.24 278.134 580.862C278.675 580.485 279.241 580.21 279.83 580.035C280.413 579.869 280.999 579.792 281.587 579.805C282.167 579.812 282.718 579.876 283.24 579.999C283.762 580.122 284.244 580.293 284.685 580.513C285.124 580.719 285.488 580.939 285.776 581.173C286.504 581.764 287.045 582.348 287.401 582.925C287.749 583.496 287.974 584.03 288.075 584.527C288.164 585.026 288.161 585.469 288.066 585.856C287.971 586.243 287.844 586.548 287.686 586.772C287.444 587.114 287.144 587.386 286.788 587.586C286.418 587.788 286.025 587.921 285.61 587.985C285.194 588.049 284.763 588.051 284.317 587.99C283.865 587.937 283.436 587.827 283.029 587.659L283.069 587.071C283.739 587.188 284.339 587.123 284.872 586.877C285.398 586.64 285.814 586.306 286.118 585.875C286.288 585.636 286.42 585.348 286.515 585.011C286.597 584.676 286.619 584.324 286.582 583.955C286.537 583.58 286.422 583.203 286.235 582.826C286.035 582.45 285.738 582.103 285.344 581.782C284.768 581.315 284.151 580.989 283.492 580.806C282.828 580.631 282.173 580.595 281.527 580.698C280.868 580.803 280.244 581.043 279.656 581.419C279.06 581.789 278.539 582.289 278.093 582.918C277.636 583.564 277.362 584.238 277.27 584.942C277.17 585.639 277.214 586.328 277.402 587.007C277.576 587.688 277.878 588.341 278.307 588.966C278.729 589.585 279.235 590.134 279.827 590.614C280.069 590.811 280.32 590.989 280.577 591.148C280.829 591.315 281.078 591.46 281.324 591.585C281.557 591.711 281.771 591.822 281.966 591.918C282.161 592.013 282.313 592.086 282.421 592.136L282.45 592.348L280.193 593.208C280.093 593.164 279.978 593.115 279.85 593.061C279.742 593.011 279.615 592.946 279.469 592.865C279.317 592.792 279.157 592.699 278.986 592.586C278.458 592.522 277.873 592.505 277.231 592.535C276.575 592.568 275.921 592.683 275.267 592.881C274.601 593.08 273.956 593.385 273.331 593.794C272.7 594.197 272.141 594.742 271.656 595.427C270.838 596.583 270.482 597.668 270.587 598.683C270.693 599.697 271.231 600.598 272.201 601.386C272.762 601.842 273.417 602.173 274.167 602.379C274.91 602.594 275.731 602.658 276.628 602.57C277.518 602.477 278.473 602.224 279.494 601.81C280.508 601.39 281.563 600.785 282.661 599.994C283.75 599.196 284.876 598.196 286.038 596.993C287.2 595.79 288.368 594.36 289.541 592.702C290.027 592.017 290.449 591.361 290.807 590.736C291.159 590.105 291.43 589.528 291.621 589.006C291.798 588.485 291.885 588.034 291.88 587.653C291.875 587.272 291.754 586.987 291.519 586.796C291.284 586.605 290.972 586.634 290.581 586.882C290.178 587.131 289.736 587.519 289.256 588.046C288.762 588.574 288.251 589.195 287.723 589.908C287.187 590.615 286.659 591.335 286.14 592.068C285.35 593.184 284.623 594.244 283.959 595.249C283.29 596.262 282.701 597.171 282.191 597.975C281.674 598.773 281.248 599.443 280.911 599.985C280.575 600.528 280.348 600.89 280.232 601.072L278.616 600.419C278.624 600.325 278.706 600.09 278.863 599.716C279.021 599.342 279.252 598.864 279.556 598.283C279.854 597.709 280.226 597.057 280.672 596.327C281.104 595.598 281.602 594.835 282.166 594.038C283.12 592.691 283.996 591.538 284.794 590.58C285.579 589.623 286.301 588.822 286.96 588.177C287.613 587.541 288.202 587.046 288.727 586.694C289.243 586.335 289.708 586.091 290.122 585.962C290.522 585.835 290.874 585.801 291.179 585.86C291.481 585.905 291.739 586.014 291.951 586.186C292.414 586.562 292.712 587.068 292.847 587.704C292.979 588.326 292.982 589.013 292.857 589.764C292.725 590.523 292.479 591.309 292.119 592.121C291.753 592.942 291.305 593.726 290.775 594.476C290.013 595.552 289.132 596.587 288.129 597.58C287.127 598.574 286.054 599.467 284.91 600.257C283.76 601.055 282.565 601.723 281.325 602.26C280.079 602.805 278.841 603.155 277.609 603.31C276.371 603.473 275.164 603.415 273.988 603.138C272.798 602.862 271.691 602.309 270.668 601.478C270.084 601.004 269.616 600.493 269.265 599.944C268.9 599.397 268.664 598.828 268.556 598.238C268.442 597.657 268.455 597.065 268.595 596.463C268.735 595.861 269.01 595.269 269.422 594.687ZM274.126 580.959L274.409 580.812L274.7 580.653L274.904 581.402L274.613 581.561C274.135 581.814 273.692 582.094 273.283 582.402C272.861 582.712 272.485 583.015 272.155 583.313C271.818 583.604 271.527 583.863 271.282 584.091C271.037 584.319 270.846 584.471 270.708 584.547C270.595 584.606 270.477 584.63 270.354 584.618C270.218 584.608 270.09 584.586 269.971 584.552C269.844 584.511 269.733 584.465 269.639 584.414C269.536 584.356 269.466 584.311 269.428 584.281C269.262 584.145 269.177 584.02 269.175 583.905C269.165 583.784 269.225 583.632 269.355 583.449C269.417 583.361 269.591 583.157 269.877 582.837C270.15 582.519 270.495 582.116 270.913 581.626C271.318 581.139 271.771 580.584 272.271 579.961C272.758 579.34 273.248 578.683 273.738 577.99C274.094 577.487 274.353 577.07 274.517 576.739C274.674 576.415 274.77 576.153 274.803 575.954C274.829 575.749 274.814 575.593 274.759 575.486C274.696 575.372 274.619 575.278 274.528 575.204C274.407 575.106 274.231 575.051 274 575.039C273.77 575.028 273.453 575.078 273.051 575.191C272.643 575.312 272.137 575.504 271.534 575.766C270.924 576.037 270.179 576.399 269.298 576.851L268.995 577L268.791 576.251L269.094 576.101C269.799 575.745 270.499 575.398 271.194 575.058C271.88 574.711 272.53 574.435 273.141 574.229C273.745 574.016 274.294 573.891 274.787 573.852C275.275 573.821 275.666 573.925 275.962 574.165C276.273 574.418 276.497 574.7 276.634 575.012C276.758 575.326 276.789 575.696 276.726 576.122C276.655 576.542 276.483 577.03 276.209 577.586C275.922 578.143 275.519 578.789 275 579.522C274.853 579.729 274.701 579.944 274.543 580.168C274.379 580.399 274.202 580.632 274.012 580.866L274.126 580.959ZM266.852 586.048C267.049 585.769 267.307 585.608 267.624 585.565C267.928 585.523 268.213 585.61 268.478 585.825C268.736 586.034 268.891 586.304 268.943 586.636C268.99 586.975 268.914 587.284 268.717 587.563C268.525 587.834 268.271 587.991 267.953 588.034C267.636 588.078 267.348 587.995 267.09 587.786C266.825 587.57 266.673 587.296 266.634 586.963C266.587 586.624 266.66 586.319 266.852 586.048ZM264.135 575.314C263.937 575.392 263.729 575.517 263.51 575.691C263.284 575.859 263.092 576.055 262.934 576.278C262.742 576.549 262.64 576.836 262.628 577.14C262.616 577.444 262.776 577.732 263.11 578.002C263.33 578.181 263.613 578.279 263.959 578.296C264.305 578.313 264.695 578.235 265.129 578.06C265.555 577.879 266.01 577.583 266.492 577.171C266.974 576.759 267.458 576.211 267.944 575.525C268.327 574.983 268.624 574.446 268.834 573.914C269.044 573.381 269.159 572.872 269.18 572.387C269.201 571.902 269.132 571.451 268.974 571.034C268.802 570.618 268.535 570.263 268.171 569.968C267.905 569.752 267.585 569.605 267.211 569.527C266.829 569.443 266.39 569.438 265.895 569.514C265.393 569.583 264.821 569.733 264.179 569.965C263.532 570.205 262.812 570.531 262.019 570.942L261.728 571.1L261.524 570.351L261.815 570.192C262.828 569.672 263.754 569.275 264.592 569.002C265.423 568.722 266.171 568.551 266.836 568.488C267.501 568.426 268.085 568.461 268.588 568.593C269.084 568.72 269.506 568.924 269.855 569.207C270.348 569.607 270.711 570.072 270.946 570.601C271.18 571.13 271.3 571.686 271.306 572.268C271.306 572.858 271.206 573.455 271.006 574.058C270.793 574.663 270.494 575.236 270.11 575.778C269.501 576.639 268.838 577.331 268.122 577.854C267.392 578.379 266.671 578.748 265.96 578.96C265.248 579.173 264.57 579.238 263.925 579.153C263.28 579.069 262.73 578.842 262.275 578.473C261.926 578.19 261.671 577.901 261.51 577.607C261.348 577.312 261.251 577.027 261.22 576.751C261.189 576.474 261.208 576.22 261.277 575.987C261.346 575.755 261.44 575.555 261.558 575.387C261.677 575.22 261.835 575.072 262.033 574.944C262.226 574.824 262.446 574.74 262.696 574.691C262.932 574.645 263.186 574.631 263.458 574.652C263.725 574.68 263.992 574.758 264.259 574.887L264.135 575.314ZM261.23 570.489L261.513 570.342L261.804 570.183L262.008 570.932L261.716 571.091C261.239 571.344 260.796 571.624 260.387 571.932C259.965 572.242 259.589 572.545 259.259 572.843C258.922 573.134 258.63 573.393 258.386 573.621C258.141 573.849 257.949 574.001 257.812 574.077C257.698 574.136 257.58 574.16 257.458 574.148C257.321 574.138 257.194 574.116 257.075 574.082C256.948 574.041 256.837 573.995 256.742 573.944C256.64 573.886 256.57 573.841 256.532 573.811C256.365 573.675 256.281 573.55 256.278 573.435C256.269 573.314 256.329 573.162 256.458 572.979C256.52 572.891 256.695 572.687 256.981 572.367C257.254 572.049 257.599 571.646 258.017 571.156C258.422 570.669 258.874 570.114 259.375 569.491C259.862 568.87 260.351 568.213 260.842 567.52C261.198 567.017 261.457 566.6 261.62 566.269C261.778 565.945 261.873 565.683 261.907 565.484C261.932 565.279 261.918 565.123 261.863 565.016C261.8 564.902 261.723 564.808 261.632 564.734C261.511 564.636 261.335 564.581 261.104 564.569C260.873 564.558 260.557 564.608 260.155 564.721C259.747 564.842 259.241 565.034 258.637 565.296C258.028 565.567 257.282 565.929 256.401 566.381L256.098 566.53L255.895 565.781L256.197 565.631C256.903 565.275 257.603 564.928 258.297 564.588C258.984 564.241 259.633 563.965 260.245 563.759C260.849 563.546 261.398 563.421 261.891 563.382C262.378 563.351 262.77 563.455 263.066 563.695C263.376 563.948 263.6 564.23 263.738 564.542C263.862 564.856 263.892 565.226 263.829 565.652C263.759 566.072 263.587 566.56 263.313 567.116C263.026 567.673 262.622 568.319 262.103 569.052C261.957 569.259 261.804 569.474 261.646 569.697C261.483 569.929 261.306 570.162 261.116 570.396L261.23 570.489ZM253.956 575.578C254.153 575.299 254.41 575.138 254.728 575.095C255.032 575.053 255.317 575.14 255.582 575.355C255.84 575.564 255.995 575.834 256.047 576.166C256.094 576.505 256.018 576.814 255.821 577.093C255.629 577.364 255.374 577.521 255.057 577.564C254.739 577.608 254.452 577.525 254.194 577.316C253.929 577.1 253.777 576.826 253.738 576.493C253.691 576.154 253.764 575.849 253.956 575.578ZM251.239 564.844C251.041 564.922 250.832 565.047 250.614 565.221C250.388 565.389 250.195 565.585 250.037 565.808C249.846 566.079 249.744 566.366 249.731 566.67C249.719 566.974 249.88 567.261 250.214 567.532C250.433 567.711 250.716 567.809 251.062 567.826C251.408 567.843 251.798 567.765 252.232 567.59C252.659 567.409 253.113 567.113 253.596 566.701C254.078 566.289 254.562 565.741 255.047 565.055C255.431 564.513 255.728 563.976 255.937 563.444C256.147 562.911 256.263 562.402 256.284 561.917C256.305 561.432 256.236 560.981 256.078 560.564C255.906 560.148 255.638 559.793 255.274 559.498C255.009 559.282 254.689 559.135 254.315 559.057C253.933 558.973 253.494 558.968 252.999 559.044C252.497 559.113 251.924 559.263 251.283 559.495C250.635 559.735 249.915 560.061 249.123 560.472L248.831 560.63L248.628 559.881L248.919 559.722C249.932 559.202 250.858 558.805 251.696 558.532C252.527 558.252 253.275 558.081 253.94 558.018C254.605 557.956 255.189 557.991 255.692 558.123C256.188 558.25 256.61 558.454 256.959 558.737C257.451 559.137 257.815 559.602 258.049 560.131C258.284 560.66 258.404 561.216 258.41 561.798C258.41 562.388 258.31 562.985 258.11 563.588C257.896 564.193 257.598 564.766 257.214 565.308C256.605 566.169 255.942 566.861 255.225 567.384C254.496 567.909 253.775 568.277 253.063 568.49C252.351 568.703 251.673 568.768 251.028 568.683C250.384 568.599 249.834 568.372 249.379 568.003C249.03 567.72 248.775 567.431 248.613 567.137C248.452 566.842 248.355 566.557 248.324 566.281C248.293 566.004 248.312 565.75 248.381 565.517C248.45 565.285 248.544 565.085 248.662 564.917C248.781 564.75 248.939 564.602 249.137 564.474C249.329 564.354 249.55 564.27 249.799 564.221C250.036 564.175 250.29 564.161 250.562 564.182C250.829 564.21 251.095 564.288 251.362 564.417L251.239 564.844ZM249.117 554.762C248.981 554.651 248.76 554.617 248.456 554.659C248.139 554.702 247.762 554.804 247.326 554.965C246.89 555.126 246.403 555.333 245.865 555.587C245.328 555.84 244.757 556.124 244.153 556.437L243.862 556.596L243.658 555.846L243.949 555.688C244.949 555.169 245.823 554.736 246.57 554.389C247.304 554.043 247.946 553.786 248.495 553.617C249.039 553.456 249.501 553.386 249.881 553.405C250.248 553.427 250.56 553.542 250.818 553.752C251.159 554.029 251.373 554.384 251.459 554.819C251.532 555.255 251.458 555.815 251.235 556.501C251 557.188 250.598 558.017 250.031 558.987C249.471 559.963 248.717 561.121 247.769 562.46C246.426 564.357 245.199 565.922 244.089 567.153C242.972 568.393 241.977 569.343 241.105 570.003C240.219 570.664 239.461 571.059 238.832 571.189C238.19 571.32 237.679 571.232 237.3 570.924C237.073 570.74 236.954 570.486 236.943 570.164C236.92 569.843 237.088 569.428 237.449 568.918C237.731 568.519 238.083 568.089 238.505 567.629C238.927 567.168 239.393 566.686 239.903 566.184C240.414 565.683 240.96 565.172 241.542 564.653C242.119 564.142 242.703 563.638 243.295 563.139C243.881 562.648 244.465 562.169 245.048 561.7C245.624 561.24 246.172 560.812 246.69 560.417C247.339 559.4 247.859 558.555 248.252 557.882C248.632 557.211 248.91 556.665 249.088 556.245C249.259 555.819 249.342 555.491 249.337 555.261C249.327 555.039 249.254 554.873 249.117 554.762ZM238.392 569.231C238.273 569.398 238.199 569.545 238.169 569.672C238.139 569.798 238.166 569.895 238.25 569.963C238.333 570.031 238.504 569.975 238.762 569.795C239.02 569.616 239.341 569.349 239.723 568.994C240.098 568.633 240.517 568.201 240.98 567.699C241.436 567.19 241.913 566.643 242.412 566.056C242.905 565.477 243.398 564.874 243.891 564.245C244.384 563.616 244.849 563.001 245.285 562.402C244.607 562.955 243.932 563.537 243.262 564.148C242.578 564.76 241.93 565.363 241.317 565.958C240.705 566.553 240.148 567.13 239.645 567.688C239.137 568.254 238.719 568.769 238.392 569.231ZM243.368 549.831C243.102 549.615 242.782 549.469 242.408 549.39C242.026 549.306 241.587 549.302 241.092 549.377C240.59 549.446 240.018 549.596 239.376 549.828C238.728 550.068 238.008 550.394 237.216 550.805L236.925 550.964L236.721 550.214L237.012 550.056C238.025 549.535 238.951 549.138 239.789 548.865C240.62 548.585 241.368 548.414 242.033 548.352C242.69 548.283 243.271 548.315 243.774 548.447C244.277 548.58 244.703 548.788 245.052 549.071C245.545 549.471 245.908 549.935 246.142 550.464C246.377 550.994 246.497 551.549 246.503 552.131C246.503 552.721 246.399 553.315 246.191 553.912C245.986 554.523 245.691 555.1 245.307 555.642C244.698 556.502 244.031 557.191 243.307 557.708C242.585 558.239 241.861 558.605 241.134 558.805C240.399 559 239.694 559.042 239.019 558.934C238.344 558.825 237.749 558.561 237.233 558.142C236.71 557.718 236.411 557.255 236.335 556.755C236.252 556.248 236.36 555.783 236.659 555.361C236.947 554.954 237.328 554.661 237.802 554.481C238.27 554.309 238.815 554.205 239.436 554.17C240.045 554.137 240.714 554.153 241.444 554.218C242.168 554.292 242.927 554.374 243.721 554.467C243.961 554.009 244.138 553.557 244.252 553.109C244.36 552.67 244.403 552.247 244.381 551.84C244.353 551.441 244.258 551.069 244.096 550.724C243.929 550.387 243.686 550.089 243.368 549.831ZM238.335 556.156C238.109 556.475 238.015 556.794 238.052 557.113C238.081 557.425 238.213 557.677 238.448 557.868C238.646 558.028 238.908 558.121 239.235 558.148C239.556 558.183 239.923 558.111 240.337 557.932C240.744 557.761 241.187 557.474 241.663 557.07C242.14 556.666 242.632 556.106 243.14 555.389L243.335 555.114C242.976 555.048 242.559 555.004 242.084 554.983C241.597 554.964 241.115 554.987 240.639 555.052C240.163 555.117 239.721 555.236 239.313 555.407C238.892 555.58 238.566 555.829 238.335 556.156Z" fill="white"/>
<path d="M227.374 50.4122C278.535 68.4102 315.01 53.7747 367.834 53.657C358.306 64.9137 353.749 70.6796 339.514 71.8513C325.279 73.0229 321.465 95.5467 330.979 104.282C340.494 113.017 255.398 95.3488 234.961 80.457C214.524 65.5652 204.417 47.0149 227.374 50.4122Z" fill="black"/>
<path d="M267.842 125.533C223.075 127.395 287.739 96.857 287.739 96.857M255.901 122.336C211.135 124.198 275.799 93.6603 275.799 93.6603" stroke="black" stroke-width="5"/>
<path d="M362.831 15.4608C380.677 11.2288 416.346 23.8638 418.828 50.5702" stroke="black" stroke-width="6"/>
<rect x="413.538" y="42.1782" width="8.86151" height="13.7079" rx="2" fill="black"/>
<rect width="9.48797" height="12.8033" rx="2" transform="matrix(0.0553093 0.998469 -0.997988 0.0634037 368.224 9.66138)" fill="black"/>
</svg>
